<svg width="63" height="60" viewBox="0 0 63 60" fill="none" xmlns="http://www.w3.org/2000/svg">
<path d="M4.2 59.1678H54.6C56.9196 59.1678 58.8001 57.4146 58.8001 55.2519V52.315C58.8001 51.7741 58.3302 51.336 57.75 51.336H55.65V35.6723H53.55V51.336H51.45V35.6723H49.35V51.336H35.9478C34.8298 51.3323 33.8067 51.9219 33.3106 52.8565C33.1676 53.126 32.8722 53.2964 32.55 53.294H26.4978C26.1759 53.2958 25.8809 53.1257 25.7388 52.8565C25.242 51.9219 24.2189 51.3323 23.1 51.336H9.45001V26.8615C9.45001 26.3206 9.91988 25.8825 10.5 25.8825H29.4V23.9246H10.5C8.76062 23.9246 7.35001 25.2398 7.35001 26.8615V51.336H5.25V24.9036C5.25 23.2818 6.66061 21.9666 8.40001 21.9666H29.4V20.0087H8.40001C5.502 20.012 3.15361 22.2016 3.15 24.9036V51.336H1.05C0.469875 51.336 0 51.7741 0 52.315V55.2519C0 57.4146 1.88049 59.1678 4.2 59.1678ZM2.1 53.294H23.1C23.4219 53.2924 23.7169 53.4619 23.8606 53.7302C24.3561 54.6652 25.3798 55.2556 26.4978 55.2519H32.55C33.6689 55.2556 34.6927 54.6652 35.1888 53.7302C35.3309 53.4616 35.6262 53.2921 35.9478 53.294H56.7001V55.2519C56.7001 56.3334 55.76 57.2099 54.6 57.2099H4.2C3.04008 57.2099 2.1 56.3334 2.1 55.2519V53.294Z" fill="#ED4C5C"/>
<path d="M13.65 36.6513V44.4832C13.65 45.0241 14.1199 45.4622 14.7 45.4622H44.1C44.6801 45.4622 45.15 45.0241 45.15 44.4832V36.6513C45.15 36.1105 44.6801 35.6724 44.1 35.6724H14.7C14.1199 35.6724 13.65 36.1105 13.65 36.6513ZM15.75 37.6303H43.05V43.5042H15.75V37.6303Z" fill="#ED4C5C"/>
<path d="M17.85 39.5881H19.95V41.5463H17.85V39.5881Z" fill="#ED4C5C"/>
<path d="M22.05 39.5881H24.15V41.5463H22.05V39.5881Z" fill="#ED4C5C"/>
<path d="M26.25 39.5881H28.35V41.5463H26.25V39.5881Z" fill="#ED4C5C"/>
<path d="M30.45 39.5881H32.55V41.5463H30.45V39.5881Z" fill="#ED4C5C"/>
<path d="M59.85 15.1502V12.1769C59.85 5.68874 54.2089 0.429199 47.25 0.429199C40.2911 0.429199 34.65 5.68874 34.65 12.1769V15.1502C32.8634 15.3277 31.5062 16.7297 31.5 18.405V30.4232C31.5026 32.2401 33.0822 33.7128 35.031 33.7144H59.469C61.4178 33.7128 62.9974 32.2401 63 30.4232V18.405C62.9938 16.7297 61.6366 15.3277 59.85 15.1502ZM36.75 12.1769C36.75 6.7699 41.4507 2.38715 47.25 2.38715C53.0493 2.38715 57.75 6.7699 57.75 12.1769V15.1138H55.65V12.1769C55.65 7.85136 51.8894 4.3451 47.25 4.3451C42.6106 4.3451 38.85 7.85136 38.85 12.1769V15.1138H36.75V12.1769ZM40.95 15.1138V12.1769C40.95 8.93343 43.7712 6.30305 47.25 6.30305C50.7288 6.30305 53.55 8.93343 53.55 12.1769V15.1138H40.95ZM60.9 30.4232C60.8993 31.1595 60.2585 31.7561 59.469 31.7564H35.031C34.2415 31.7561 33.6007 31.1595 33.6 30.4232V18.405C33.6007 17.6686 34.2415 17.0721 35.031 17.0718H59.469C60.2585 17.0721 60.8993 17.6686 60.9 18.405V30.4232Z" fill="#ED4C5C"/>
<path d="M47.2501 20.9877C45.7177 20.9846 44.4069 22.0129 44.1467 23.4214C43.8871 24.8296 44.7547 26.2069 46.2001 26.6814V28.8196H48.3001V26.6814C49.7455 26.2069 50.613 24.8296 50.3535 23.4214C50.0933 22.0129 48.7824 20.9846 47.2501 20.9877ZM47.2501 24.9036C46.6699 24.9036 46.2001 24.4655 46.2001 23.9246C46.2001 23.3838 46.6699 22.9457 47.2501 22.9457C47.8302 22.9457 48.3001 23.3838 48.3001 23.9246C48.3001 24.4655 47.8302 24.9036 47.2501 24.9036Z" fill="#ED4C5C"/>
<path d="M18.9 16.0929H21V18.0507H18.9V16.0929Z" fill="#ED4C5C"/>
<path d="M18.9 12.1768H21V14.1348H18.9V12.1768Z" fill="#ED4C5C"/>
<path d="M18.9 8.26111H21V10.2189H18.9V8.26111Z" fill="#ED4C5C"/>
<path d="M18.9 4.34497H21V6.30298H18.9V4.34497Z" fill="#ED4C5C"/>
<path d="M23.1 4.34497H25.2V6.30298H23.1V4.34497Z" fill="#ED4C5C"/>
<path d="M27.3 4.34497H29.4V6.30298H27.3V4.34497Z" fill="#ED4C5C"/>
<path d="M31.5 4.34497H33.6V6.30298H31.5V4.34497Z" fill="#ED4C5C"/>
</svg>
