<svg width="72" height="60" viewBox="0 0 72 60" fill="none" xmlns="http://www.w3.org/2000/svg">
<path d="M38.8081 59.6704C38.228 59.6704 37.7576 59.2261 37.7576 58.6781V56.0394C37.7576 55.6615 37.4321 55.354 37.032 55.354H34.2117C33.8117 55.354 33.4862 55.6615 33.4862 56.0394V58.6781C33.4862 59.2261 33.0158 59.6704 32.4357 59.6704C31.8555 59.6704 31.3851 59.2261 31.3851 58.6781V56.0394C31.3851 54.5672 32.6532 53.3694 34.2117 53.3694H37.032C38.5906 53.3694 39.8586 54.5672 39.8586 56.0394V58.6781C39.8586 59.2261 39.3884 59.6704 38.8081 59.6704Z" fill="#ED4C5C"/>
<path d="M45.7223 23.3954C45.3772 22.9549 44.7192 22.8624 44.2528 23.1883C43.7865 23.5145 43.6885 24.1359 44.0336 24.5764L49.2502 31.2319C49.8305 31.9722 49.7885 33.0873 49.1547 33.7705L43.5344 39.8293H27.7093L22.0891 33.7705C21.4552 33.0873 21.4132 31.9722 21.9935 31.2319L32.3504 18.0183V25.5475C31.0375 26.5007 30.2701 27.9585 30.2701 29.5497C30.2701 32.3373 32.6709 34.6052 35.6219 34.6052C38.5729 34.6052 40.9736 32.3373 40.9736 29.5497C40.9736 28.0301 40.2577 26.611 39.0334 25.655V18.197L41.3402 21.1401C41.6855 21.5807 42.3434 21.6732 42.8097 21.3471C43.276 21.021 43.374 20.3995 43.0289 19.959L38.5229 14.21C37.8135 13.305 36.7562 12.7859 35.622 12.7859C34.4879 12.7859 33.4305 13.305 32.7212 14.21L20.305 30.051C19.1406 31.5367 19.2283 33.698 20.5091 35.0787L25.1962 40.1314C24.0258 40.6469 23.2123 41.7683 23.2123 43.0664V47.8007C23.2123 49.2501 24.226 50.48 25.6188 50.8912L25.9054 58.7128C25.925 59.2489 26.3911 59.6709 26.9546 59.6709C26.967 59.6709 26.9793 59.6708 26.9916 59.6704C27.5715 59.6513 28.0252 59.1921 28.0052 58.6443L27.7264 51.0378H43.6577L43.3789 58.6443C43.3589 59.1921 43.8127 59.6513 44.3925 59.6704C44.4048 59.6708 44.4171 59.6709 44.4294 59.6709C44.9928 59.6709 45.4591 59.2489 45.4787 58.7128L45.767 50.8458C47.0863 50.3953 48.0317 49.2005 48.0317 47.8007V43.0664C48.0317 41.7683 47.2182 40.6469 46.0478 40.1314L50.735 35.0787C52.0157 33.6982 52.1034 31.5367 50.939 30.051L45.7223 23.3954ZM35.6219 14.7705C36.09 14.7705 36.5206 14.9908 36.834 15.3908L36.9324 15.5162V26.1537C36.9324 26.4876 37.1101 26.7992 37.4054 26.9827C38.3241 27.5537 38.8726 28.5134 38.8726 29.5494C38.8726 31.2427 37.4143 32.6202 35.6219 32.6202C33.8294 32.6202 32.3711 31.2427 32.3711 29.5494C32.3711 28.4643 32.9591 27.481 33.9441 26.9188C34.259 26.7391 34.4514 26.4169 34.4514 26.0694V15.3427C34.761 14.9744 35.1736 14.7705 35.6219 14.7705ZM45.9307 47.8005C45.9307 48.4909 45.336 49.0527 44.6051 49.0527H26.6388C25.9078 49.0527 25.3132 48.4909 25.3132 47.8005V43.0661C25.3132 42.3757 25.9079 41.8139 26.6388 41.8139H44.6051C45.3361 41.8139 45.9307 42.3757 45.9307 43.0661V47.8005Z" fill="#ED4C5C"/>
<path d="M14.7161 23.7C14.8541 20.5559 15.7798 17.4776 17.4182 14.7498C17.7045 14.2731 17.5276 13.6675 17.0229 13.3971C16.5183 13.1265 15.8772 13.2937 15.5909 13.7705C13.775 16.7934 12.754 20.2066 12.6134 23.6903C10.8005 24.1257 9.45557 25.6803 9.45557 27.5265C9.45557 29.7089 11.3352 31.4844 13.6454 31.4844C15.9557 31.4844 17.8353 29.7089 17.8353 27.5265C17.8353 25.6935 16.5094 24.1481 14.7161 23.7ZM13.6454 29.4997C12.4937 29.4997 11.5566 28.6145 11.5566 27.5265C11.5566 26.4385 12.4937 25.5533 13.6454 25.5533C14.7972 25.5533 15.7343 26.4385 15.7343 27.5265C15.7343 28.6145 14.7972 29.4997 13.6454 29.4997Z" fill="#ED4C5C"/>
<path d="M69.1597 0H65.7838C64.5573 0 63.5595 0.942604 63.5595 2.10114V2.7033H39.6043V2.10114C39.6043 0.942604 38.6064 0 37.38 0H34.004C32.7776 0 31.7797 0.942604 31.7797 2.10114V2.7033H7.82458V2.10114C7.82458 0.942604 6.82672 0 5.60027 0H2.22431C0.997857 0 0 0.942604 0 2.10114V5.29017C0 6.44871 0.997857 7.39132 2.22431 7.39132H5.60027C6.82672 7.39132 7.82458 6.44871 7.82458 5.29017V4.68801H26.0612C23.1447 5.95346 20.512 7.7917 18.35 10.1117C17.9666 10.5231 18.0088 11.1501 18.4444 11.5122C18.644 11.6782 18.8915 11.7598 19.1382 11.7598C19.4295 11.7598 19.7194 11.646 19.927 11.4232C23.0335 8.0898 27.2067 5.84894 31.7797 5.03375V5.29031C31.7797 6.44885 32.7776 7.39145 34.004 7.39145H37.38C38.6064 7.39145 39.6043 6.44885 39.6043 5.29031V5.03362C49.1412 6.73107 56.2666 14.4999 56.6691 23.6999C54.8753 24.1477 53.5487 25.6934 53.5487 27.5267C53.5487 29.7091 55.4283 31.4846 57.7386 31.4846C60.0489 31.4846 61.9285 29.7091 61.9285 27.5267C61.9285 25.6808 60.5837 24.1262 58.7709 23.6907C58.4351 15.3431 53.068 8.05593 45.3234 4.68828H63.5595V5.29044C63.5595 6.44898 64.5573 7.39158 65.7838 7.39158H69.1597C70.3862 7.39158 71.384 6.44898 71.384 5.29044V2.10114C71.384 0.942604 70.3862 0 69.1597 0ZM5.72353 5.29017C5.72353 5.35435 5.6682 5.40661 5.60027 5.40661H2.22431C2.15637 5.40661 2.10105 5.35435 2.10105 5.29017V2.10114C2.10105 2.03697 2.15637 1.98471 2.22431 1.98471H5.60027C5.6682 1.98471 5.72353 2.03697 5.72353 2.10114V5.29017ZM59.8274 27.5264C59.8274 28.6145 58.8904 29.4996 57.7386 29.4996C56.5868 29.4996 55.6497 28.6145 55.6497 27.5264C55.6497 26.4384 56.5868 25.5533 57.7386 25.5533C58.8904 25.5533 59.8274 26.4384 59.8274 27.5264ZM37.5033 5.29017C37.5033 5.35435 37.4479 5.40661 37.38 5.40661H34.004C33.9361 5.40661 33.8808 5.35435 33.8808 5.29017V2.10114C33.8808 2.03697 33.9361 1.98471 34.004 1.98471H37.38C37.4479 1.98471 37.5033 2.03697 37.5033 2.10114V5.29017ZM69.283 5.29017C69.283 5.35435 69.2277 5.40661 69.1597 5.40661H65.7838C65.7158 5.40661 65.6605 5.35435 65.6605 5.29017V2.10114C65.6605 2.03697 65.7158 1.98471 65.7838 1.98471H69.1597C69.2277 1.98471 69.283 2.03697 69.283 2.10114V5.29017Z" fill="#ED4C5C"/>
</svg>
