<svg width="63" height="61" viewBox="0 0 63 61" fill="none" xmlns="http://www.w3.org/2000/svg">
<path d="M52.9742 16.1878C52.4265 7.46749 44.7166 0.49707 35.4207 0.49707C29.7778 0.49707 24.3136 3.07731 20.9278 7.28727C20.8509 7.24948 20.7688 7.22429 20.6909 7.18844C20.4851 7.09542 20.2762 7.00628 20.0621 6.9278C19.9426 6.8842 19.8231 6.84447 19.7026 6.80475C19.4926 6.73595 19.2806 6.67588 19.0634 6.62065C18.9429 6.59061 18.8234 6.55961 18.7007 6.53345C18.468 6.48403 18.231 6.44624 17.991 6.4133C17.885 6.39877 17.781 6.37939 17.674 6.36776C17.3311 6.33288 16.9819 6.3106 16.6275 6.3106C11.4709 6.3106 7.27453 10.2221 7.27453 15.0309C7.27453 15.1559 7.28181 15.278 7.29116 15.4C2.96905 17.5966 0 22.1999 0 26.8071C0 33.67 5.98798 39.2539 13.3488 39.2539H18.7059C19.2796 39.2539 19.7452 38.8208 19.7452 38.285C19.7452 37.7492 19.2796 37.3161 18.7059 37.3161H13.3488C7.13424 37.3161 2.07844 32.6023 2.07844 26.8071C2.07844 22.7822 4.88953 18.6043 8.7627 16.8728L9.35297 16.6102V15.9998C9.35297 15.8806 9.36129 15.7585 9.36856 15.6365L9.37791 15.4669L9.36544 15.2847C9.36025 15.2004 9.35297 15.1161 9.35297 15.0309C9.35297 11.2918 12.6161 8.24844 16.6275 8.24844C16.9486 8.24844 17.2656 8.2746 17.5805 8.31336C17.6615 8.32304 17.7415 8.33564 17.8216 8.34824C18.1001 8.39087 18.3744 8.44707 18.6446 8.51974C18.68 8.52942 18.7163 8.53524 18.7506 8.54493C19.0478 8.62922 19.3378 8.73677 19.6215 8.85692C19.6932 8.88696 19.7639 8.9199 19.8345 8.95284C20.086 9.06814 20.3323 9.19604 20.5693 9.33944C22.5718 10.5496 23.902 12.6464 23.902 15.0309C23.902 15.5667 24.3676 15.9998 24.9413 15.9998C25.5149 15.9998 25.9805 15.5667 25.9805 15.0309C25.9805 12.3625 24.6856 9.97408 22.655 8.37343C25.6334 4.73997 30.5406 2.43491 35.4207 2.43491C43.4685 2.43491 50.1548 8.37924 50.8511 15.8903C49.789 15.8206 48.1979 15.7847 46.6079 16.0114C46.0405 16.0919 45.6508 16.586 45.7371 17.115C45.815 17.5946 46.2577 17.9386 46.7628 17.9386C46.8147 17.9386 46.8677 17.9347 46.9207 17.927C49.232 17.6014 51.6419 17.9066 51.7884 17.9251C56.6271 18.7825 60.2747 22.9382 60.2747 27.5997C60.2747 32.9569 55.5993 37.3161 49.8534 37.3161H45.7256C45.152 37.3161 44.6864 37.7492 44.6864 38.285C44.6864 38.8208 45.152 39.2539 45.7256 39.2539H49.8534C56.7455 39.2539 62.3531 34.0256 62.3531 27.5997C62.3531 22.2813 58.3761 17.5113 52.9742 16.1878Z" fill="#ED4C5C"/>
<path d="M32.9516 36.2295C32.8559 36.1393 32.7406 36.0686 32.6128 36.0192C32.3592 35.9213 32.0724 35.9213 31.8188 36.0192C31.691 36.0686 31.5767 36.1393 31.48 36.2295L23.1673 43.9798C22.761 44.3587 22.761 44.9711 23.1673 45.3499C23.3699 45.5388 23.636 45.6338 23.902 45.6338C24.1681 45.6338 24.4341 45.5388 24.6368 45.3499L31.1766 39.2525V59.1987C31.1766 59.7345 31.6421 60.1676 32.2158 60.1676C32.7894 60.1676 33.255 59.7345 33.255 59.1987V39.2525L39.7948 45.3499C39.9975 45.5388 40.2635 45.6338 40.5295 45.6338C40.7956 45.6338 41.0616 45.5388 41.2643 45.3499C41.6706 44.9711 41.6706 44.3587 41.2643 43.9798L32.9516 36.2295Z" fill="#ED4C5C"/>
</svg>
