<svg width="51" height="56" viewBox="0 0 51 56" fill="none" xmlns="http://www.w3.org/2000/svg">
<path d="M20.2916 52.5601C20.7773 52.5601 21.1709 52.1931 21.1709 51.7401C21.1709 51.2872 20.7773 50.9202 20.2916 50.9202H18.1373C17.6515 50.9202 17.2579 51.2872 17.2579 51.7401C17.2579 52.1931 17.6515 52.5601 18.1373 52.5601H20.2916Z" fill="#ED4C5C"/>
<path d="M46.0167 17.7737C45.5312 17.7737 45.1378 18.1406 45.1378 18.5931V18.7924C45.1378 19.2449 45.5312 19.6118 46.0167 19.6118C46.5022 19.6118 46.8956 19.2449 46.8956 18.7924V18.5931C46.8956 18.1406 46.5021 17.7737 46.0167 17.7737Z" fill="#ED4C5C"/>
<path d="M46.0167 35.2251C46.5022 35.2251 46.8956 34.8583 46.8956 34.4057V34.2064C46.8956 33.7537 46.5022 33.387 46.0167 33.387C45.5312 33.387 45.1378 33.7537 45.1378 34.2064V34.4057C45.1378 34.8582 45.5312 35.2251 46.0167 35.2251Z" fill="#ED4C5C"/>
<path d="M33.4458 27.282H35.8817C36.3674 27.282 36.761 26.9149 36.761 26.462C36.761 26.0092 36.3674 25.6421 35.8817 25.6421H33.4458C32.9601 25.6421 32.5665 26.0092 32.5665 26.462C32.5665 26.9149 32.9602 27.282 33.4458 27.282Z" fill="#ED4C5C"/>
<path d="M49.1736 13.9975H38.4287V3.22659C38.4287 1.44741 36.8763 0 34.9681 0H3.46068C1.55254 0 0.000117179 1.44741 0.000117179 3.22659V40.3358C0.000117179 40.7887 0.393704 41.1557 0.879444 41.1557C1.36518 41.1557 1.75877 40.7887 1.75877 40.3358V3.22659C1.75877 2.35154 2.52214 1.6397 3.46068 1.6397H34.968C35.9065 1.6397 36.67 2.35154 36.67 3.22659V13.9975H34.3252V11.3713C34.3252 10.9185 33.9316 10.5514 33.4458 10.5514C32.9601 10.5514 32.5665 10.9185 32.5665 11.3713V13.9975H19.0166V13.1321C19.0166 12.6793 18.623 12.3123 18.1372 12.3123C17.6515 12.3123 17.2579 12.6793 17.2579 13.1321V39.8677C17.2579 40.3205 17.6515 40.6875 18.1372 40.6875C18.623 40.6875 19.0166 40.3205 19.0166 39.8677V39.0021H32.5665V47.534H5.86229V5.46565H32.5666V8.09343C32.5666 8.5462 32.9602 8.91327 33.4459 8.91327C33.9317 8.91327 34.3253 8.5462 34.3253 8.09343V4.87274C34.3253 4.29556 33.8217 3.82596 33.2027 3.82596H5.22625C4.6072 3.82596 4.10364 4.29545 4.10364 4.87274V48.1269C4.10364 48.704 4.6072 49.1736 5.22625 49.1736H33.2025C33.8216 49.1736 34.3252 48.704 34.3252 48.1269V39.002H36.67V52.7416C36.67 53.6166 35.9065 54.3286 34.968 54.3286H3.46068C2.52214 54.3286 1.75865 53.6166 1.75865 52.7416V43.6137C1.75865 43.1608 1.36507 42.7939 0.879327 42.7939C0.393587 42.7939 0 43.1608 0 43.6137V52.7416C0 54.5207 1.55242 55.9683 3.46068 55.9683H34.968C36.8761 55.9683 38.4287 54.5208 38.4287 52.7416V39.002H42.5775C43.0632 39.002 43.4568 38.635 43.4568 38.1822C43.4568 37.7293 43.0632 37.3623 42.5775 37.3623H19.0166V35.1761H42.1659C42.6517 35.1761 43.0453 34.8091 43.0453 34.3562C43.0453 32.8283 44.3784 31.5853 46.0172 31.5853C46.5029 31.5853 46.8965 31.2184 46.8965 30.7655V22.2339C46.8965 21.7812 46.5029 21.4141 46.0172 21.4141C44.3784 21.4141 43.0453 20.1711 43.0453 18.6433C43.0453 18.1906 42.6517 17.8235 42.1659 17.8235H19.0166V15.6372H49.1736C49.2109 15.6372 49.2413 15.6655 49.2413 15.7004V37.2991C49.2413 37.3339 49.2109 37.3623 49.1736 37.3623H46.0934C45.6076 37.3623 45.214 37.7293 45.214 38.1822C45.214 38.635 45.6076 39.002 46.0934 39.002H49.1736C50.1807 39.002 51 38.2381 51 37.2991V15.7004C51 14.7615 50.1807 13.9975 49.1736 13.9975ZM41.3686 19.4632C41.728 21.239 43.2331 22.6422 45.1377 22.9774V30.0221C43.2331 30.3572 41.728 31.7605 41.3686 33.5362H19.0166V19.4632H41.3686Z" fill="#ED4C5C"/>
<path d="M9.00881 9.18091H12.0427C12.5285 9.18091 12.9221 8.81379 12.9221 8.36096C12.9221 7.90813 12.5285 7.54102 12.0427 7.54102H9.00881C8.52307 7.54102 8.12949 7.90813 8.12949 8.36096C8.12949 8.81379 8.52307 9.18091 9.00881 9.18091Z" fill="#ED4C5C"/>
<path d="M9.00881 12.626H14.8566C15.3423 12.626 15.7359 12.2589 15.7359 11.8062C15.7359 11.3534 15.3423 10.9863 14.8566 10.9863H9.00881C8.52307 10.9863 8.12949 11.3534 8.12949 11.8062C8.12949 12.2589 8.52307 12.626 9.00881 12.626Z" fill="#ED4C5C"/>
<path d="M27.6604 25.8417C27.5473 25.8044 27.4321 25.7657 27.3168 25.7259V23.6704C27.8625 23.7448 28.2743 23.9278 28.2886 23.9342C28.6353 24.095 29.0566 23.9641 29.2304 23.6409C29.4045 23.3172 29.2643 22.9231 28.917 22.7606C28.8752 22.7411 28.2075 22.4345 27.3168 22.3499V22.0639C27.3168 21.7017 27.0017 21.408 26.6133 21.408C26.2249 21.408 25.9098 21.7017 25.9098 22.0639V22.4419C25.8732 22.4509 25.8366 22.46 25.7999 22.4703C24.9857 22.699 24.3777 23.3468 24.2132 24.1609C24.0621 24.9086 24.3231 25.6325 24.894 26.05C25.1588 26.2436 25.4808 26.4213 25.9098 26.6054V29.2413C25.6193 29.1992 25.3943 29.1027 25.0423 28.8879C24.7173 28.6896 24.2812 28.7744 24.0685 29.0775C23.8558 29.3807 23.9469 29.7872 24.2719 29.9855C24.8922 30.3639 25.3448 30.5109 25.9098 30.5611V30.9359C25.9098 31.2981 26.2249 31.5918 26.6133 31.5918C27.0017 31.5918 27.3168 31.2981 27.3168 30.9359V30.499C28.4456 30.2243 29.1691 29.3221 29.3295 28.4322C29.5372 27.2802 28.8665 26.2392 27.6604 25.8417ZM25.7625 25.0179C25.6086 24.9054 25.5432 24.6644 25.5958 24.4038C25.6317 24.2264 25.7327 24.025 25.9099 23.8811V25.1161C25.8577 25.0838 25.8078 25.0511 25.7625 25.0179ZM27.9421 28.2147C27.8832 28.5415 27.6711 28.8843 27.3169 29.088V27.126C28.0024 27.4134 27.985 27.9763 27.9421 28.2147Z" fill="#ED4C5C"/>
</svg>
