<svg width="109" height="58" viewBox="0 0 109 58" fill="none" xmlns="http://www.w3.org/2000/svg">
<path d="M42.526 4.9561C42.8486 4.33511 42.8956 3.6326 42.6589 2.97832C42.4221 2.32403 41.9301 1.79565 41.2727 1.49092C39.9154 0.862244 38.2704 1.39318 37.6044 2.67486L34.8393 7.99833C32.4997 6.82207 29.8322 6.15413 27.002 6.15413C24.1718 6.15413 21.5043 6.82207 19.1648 7.99833L16.3997 2.67486C15.7337 1.39318 14.0882 0.861817 12.7314 1.49092C12.074 1.79565 11.5819 2.3236 11.3452 2.97832C11.1084 3.6326 11.1554 4.33511 11.478 4.95568L14.7334 11.2224C11.9615 14.0448 10.264 17.8207 10.264 21.9649C10.264 22.4216 10.6557 22.7916 11.1391 22.7916H42.8649C43.3479 22.7916 43.7396 22.4216 43.7396 21.9649C43.7396 17.8207 42.0421 14.0448 39.2707 11.2224L42.526 4.9561ZM39.1754 3.40255C39.4157 2.93948 40.0112 2.74699 40.5019 2.97447C40.9926 3.20196 41.1959 3.76405 40.9551 4.22798L37.9491 10.0141C37.4404 9.59755 36.9041 9.20916 36.3443 8.85236L39.1754 3.40255ZM13.5022 2.97447C13.9928 2.74699 14.5883 2.93905 14.8287 3.40255L17.6598 8.85236C17.1 9.20959 16.5637 9.59755 16.0545 10.0145L13.049 4.22798C12.8077 3.76405 13.0115 3.20196 13.5022 2.97447ZM12.0392 21.1386C12.4937 13.7149 19.0311 7.8067 27.002 7.8067C34.973 7.8067 41.5104 13.7149 41.9649 21.1386H12.0392Z" fill="#ED4C5C"/>
<path d="M49.8631 24.6646C47.5801 24.6646 45.7227 26.4191 45.7227 28.5762V41.7975C45.7227 43.9545 47.5801 45.7091 49.8631 45.7091C52.1466 45.7091 54.004 43.9545 54.004 41.7975V28.5762C54.004 26.4191 52.1466 24.6646 49.8631 24.6646ZM52.2546 41.7975C52.2546 43.0433 51.182 44.0565 49.8631 44.0565C48.5447 44.0565 47.4721 43.0433 47.4721 41.7975V28.5762C47.4721 27.3303 48.5447 26.3171 49.8631 26.3171C51.182 26.3171 52.2546 27.3303 52.2546 28.5762V41.7975Z" fill="#ED4C5C"/>
<path d="M42.865 24.6646H38.3161C37.8331 24.6646 37.4413 25.0346 37.4413 25.4908C37.4413 25.9475 37.8331 26.3171 38.3161 26.3171H41.9902V45.8193H38.1995C37.716 45.8193 37.3248 46.1894 37.3248 46.6456V53.2568C37.3248 54.5022 36.2522 55.5154 34.9337 55.5154C33.6149 55.5154 32.5423 54.5022 32.5423 53.2568V46.6456C32.5423 46.1894 32.151 45.8193 31.6676 45.8193H22.3366C21.8532 45.8193 21.4619 46.1894 21.4619 46.6456V53.2568C21.4619 54.5022 20.3893 55.5154 19.0704 55.5154C17.752 55.5154 16.6794 54.5022 16.6794 53.2568V46.6456C16.6794 46.1894 16.2881 45.8193 15.8047 45.8193H12.0139V26.3171H34.0586C34.542 26.3171 34.9337 25.9475 34.9337 25.4908C34.9337 25.0346 34.542 24.6646 34.0586 24.6646H11.1392C10.6557 24.6646 10.2645 25.0346 10.2645 25.4908V46.6456C10.2645 47.1023 10.6557 47.4719 11.1392 47.4719H14.9299V53.2568C14.9299 55.4134 16.7874 57.168 19.0704 57.168C21.3539 57.168 23.2113 55.4134 23.2113 53.2568V47.4719H30.7928V53.2568C30.7928 55.4134 32.6503 57.168 34.9337 57.168C37.2168 57.168 39.0742 55.4134 39.0742 53.2568V47.4719H42.865C43.3484 47.4719 43.7397 47.1023 43.7397 46.6456V25.4908C43.7397 25.0346 43.348 24.6646 42.865 24.6646Z" fill="#ED4C5C"/>
<path d="M4.14091 24.6646C1.85742 24.6646 0 26.4191 0 28.5762V41.7975C0 43.9545 1.85742 45.7091 4.14091 45.7091C6.42395 45.7091 8.28137 43.9545 8.28137 41.7975V28.5762C8.28137 26.4191 6.42395 24.6646 4.14091 24.6646ZM6.53193 41.7975C6.53193 43.0433 5.45932 44.0565 4.14091 44.0565C2.82206 44.0565 1.74944 43.0433 1.74944 41.7975V28.5762C1.74944 27.3303 2.82206 26.3171 4.14091 26.3171C5.45932 26.3171 6.53193 27.3303 6.53193 28.5762V41.7975Z" fill="#ED4C5C"/>
<path d="M19.537 14.087C18.0257 14.087 16.7958 15.2488 16.7958 16.6765C16.7958 18.1041 18.0257 19.2659 19.537 19.2659C21.0483 19.2659 22.2782 18.1041 22.2782 16.6765C22.2782 15.2488 21.0483 14.087 19.537 14.087ZM19.537 17.6129C18.9903 17.6129 18.5457 17.1929 18.5457 16.6765C18.5457 16.16 18.9903 15.74 19.537 15.74C20.0837 15.74 20.5283 16.16 20.5283 16.6765C20.5283 17.1929 20.0837 17.6129 19.537 17.6129Z" fill="#ED4C5C"/>
<path d="M34.467 14.087C32.9557 14.087 31.7258 15.2488 31.7258 16.6765C31.7258 18.1041 32.9557 19.2659 34.467 19.2659C35.9783 19.2659 37.2082 18.1041 37.2082 16.6765C37.2082 15.2488 35.9783 14.087 34.467 14.087ZM34.467 17.6129C33.9203 17.6129 33.4757 17.1929 33.4757 16.6765C33.4757 16.16 33.9203 15.74 34.467 15.74C35.0137 15.74 35.4583 16.16 35.4583 16.6765C35.4583 17.1929 35.0137 17.6129 34.467 17.6129Z" fill="#ED4C5C"/>
<path d="M108.023 40.6823C106.35 39.8972 102.358 37.5342 101.421 32.5663C101.336 32.1119 100.872 31.8086 100.384 31.8881C99.8963 31.968 99.5706 32.4011 99.6563 32.8557C100.731 38.5571 105.284 41.2648 107.205 42.1693C106.688 43.5679 105.514 46.3223 103.448 49.1338C101.253 52.1265 98.7651 55.5184 95.0711 55.5837C91.3617 55.6409 90.0215 53.3807 85.2731 53.3807C80.5239 53.3807 79.0131 55.5219 75.4972 55.6517C72.1876 55.7698 69.5328 52.5707 66.8805 48.9963C61.9792 42.3865 58.0928 30.1419 63.1519 21.9548C65.2674 18.5314 68.77 16.2105 72.7615 15.5872C73.2496 15.511 73.579 15.0803 73.4972 14.6251C73.4155 14.17 72.9539 13.8627 72.4654 13.9392C67.9435 14.6454 63.9828 17.2629 61.5988 21.1207C56.1911 29.8717 60.0883 42.7757 65.4063 49.9469C67.5945 52.896 70.8815 57.3262 75.3279 57.3258C79.3365 57.3258 80.842 55.0519 85.273 55.0517C89.5935 55.0517 90.8634 57.3283 95.1043 57.2543C99.7226 57.1726 102.609 53.2384 104.927 50.0775C107.117 47.0974 108.358 44.1781 108.904 42.703C109.192 41.9221 108.814 41.0534 108.023 40.6823Z" fill="#ED4C5C"/>
<path d="M96.8881 1.90978C96.8657 0.912823 95.8978 0.161935 94.8362 0.313427C87.8719 1.30537 82.8359 7.58138 83.0572 13.0921C83.0929 13.9769 83.8795 14.6796 84.8219 14.6796C84.8386 14.6796 84.8553 14.6793 84.8721 14.6789C91.3889 14.507 97.0304 8.19381 96.8881 1.90978ZM84.8473 13.0079C84.7429 10.1933 86.3299 7.43902 87.8563 5.79343C89.616 3.87249 92.5256 2.33518 95.0969 1.96547C95.2043 7.28029 90.4161 12.8418 84.8473 13.0079Z" fill="#ED4C5C"/>
<path d="M106.898 18.7253C104.195 15.5134 100.348 13.92 95.926 13.6126C90.8362 13.2612 86.4973 16.1591 84.4933 16.1591C82.8531 16.1591 80.0281 14.5421 76.9736 13.9631C76.4883 13.8709 76.0156 14.1632 75.9169 14.6153C75.8183 15.0674 76.1314 15.5085 76.6164 15.6005C79.6055 16.1673 82.3199 17.8301 84.4933 17.8301C87.1064 17.8301 91.1081 14.955 95.7931 15.2788C99.693 15.5502 103.083 16.9085 105.474 19.7412C103.918 20.7864 100.246 23.7411 99.548 28.7033C99.4837 29.1608 99.8294 29.5803 100.32 29.6403C100.359 29.6451 100.399 29.6475 100.438 29.6475C100.881 29.6475 101.266 29.3411 101.325 28.9206C101.933 24.5972 105.167 22.0058 106.529 21.0925C107.335 20.5523 107.532 19.4789 106.898 18.7253Z" fill="#ED4C5C"/>
</svg>
