<svg width="56" height="59" viewBox="0 0 56 59" fill="none" xmlns="http://www.w3.org/2000/svg">
<path d="M55.602 47.6071C55.499 47.1343 55.0834 46.7659 54.5709 46.6962C54.0581 46.6264 53.5373 46.877 53.3016 47.3071C53.0679 47.7334 53.1455 48.2657 53.498 48.6152C53.8453 48.9598 54.3978 49.0704 54.8662 48.8899C55.4006 48.6838 55.7174 48.137 55.602 47.6071Z" fill="#ED4C5C"/>
<path d="M53.4545 52.0399C52.8788 51.7026 52.1192 51.8648 51.7582 52.4014C50.0535 54.9329 47.1235 56.4443 43.9207 56.4443C38.8232 56.4443 34.676 52.5803 34.676 47.8308C34.676 43.0813 38.8232 39.2173 43.9207 39.2173C47.0792 39.2173 49.9874 40.6967 51.6992 43.1735L51.7439 43.2388C52.1083 43.7735 52.8682 43.9318 53.4424 43.5922C54.016 43.2525 54.1857 42.5435 53.8213 42.0087L53.7686 41.9316C51.8186 39.1102 48.6437 37.3115 45.1147 36.9788C44.7525 33.6675 41.7428 31.0752 38.0956 31.0752H37.1129C40.1592 28.9594 42.1356 25.5767 42.1356 21.772C42.1356 15.3775 36.5528 10.1751 29.6905 10.1751C29.058 10.1751 28.4365 10.2194 27.8292 10.3045C27.5139 7.64614 26.2304 5.18702 24.1521 3.29683C21.8146 1.17087 18.7277 0 15.4606 0C8.59828 0 3.01551 5.2024 3.01551 11.5969C3.01551 15.4016 4.99189 18.7841 8.03804 20.9001H7.05563C3.16514 20.9001 0 23.8497 0 27.4753V39.2291C0 39.8626 0.551004 40.3764 1.23047 40.3764H14.23V49.4042C14.23 50.0377 14.781 50.5515 15.4605 50.5515H32.5834C33.8839 55.2541 38.4738 58.7388 43.9207 58.7388C47.9756 58.7388 51.6848 56.8257 53.8424 53.6216C54.2038 53.0849 54.0302 52.3769 53.4545 52.0399ZM39.6748 21.7721C39.6748 26.9014 35.196 31.0745 29.6906 31.0745C24.1852 31.0745 19.7065 26.9014 19.7065 21.7721C19.7065 16.6428 24.1852 12.4697 29.6906 12.4697C35.196 12.4697 39.6748 16.6428 39.6748 21.7721ZM5.47645 11.5969C5.47645 6.46757 9.95524 2.29448 15.4606 2.29448C20.7466 2.29448 25.0263 6.02875 25.4158 10.8802C20.9837 12.3955 17.7253 16.1966 17.2942 20.7429C16.6923 20.8469 16.0778 20.8994 15.4606 20.8994C9.95536 20.8994 5.47645 16.7263 5.47645 11.5969ZM14.2301 37.6504V38.0819H2.46094V27.4753C2.46094 25.115 4.5221 23.1946 7.05563 23.1946H17.3388C17.7631 26.4127 19.6075 29.2272 22.2684 31.0753H21.2858C17.3953 31.0753 14.2301 34.0249 14.2301 37.6504ZM16.6911 48.257V37.6504C16.6911 35.2902 18.7522 33.3698 21.2858 33.3698H38.0956C40.3873 33.3698 42.2926 34.9412 42.6353 36.9882C36.7833 37.5865 32.215 42.2208 32.215 47.8308C32.215 47.9735 32.218 48.1155 32.2239 48.257H16.6911Z" fill="#ED4C5C"/>
<path d="M43.9208 51.6738C44.6003 51.6738 45.1513 51.1601 45.1513 50.5266V48.978H46.8122C47.4917 48.978 48.0427 48.4643 48.0427 47.8307C48.0427 47.1972 47.4917 46.6834 46.8122 46.6834H45.1513V45.1348C45.1513 44.5013 44.6003 43.9875 43.9208 43.9875C43.2414 43.9875 42.6904 44.5013 42.6904 45.1348V46.6834H41.0296C40.3501 46.6834 39.7991 47.1972 39.7991 47.8307C39.7991 48.4643 40.3501 48.978 41.0296 48.978H42.6904V50.5266C42.6904 51.1601 43.2412 51.6738 43.9208 51.6738Z" fill="#ED4C5C"/>
</svg>
