<svg width="62" height="57" viewBox="0 0 62 57" fill="none" xmlns="http://www.w3.org/2000/svg">
<path d="M60.2185 51.7127H56.5314V38.6907C56.5314 38.2297 56.1306 37.856 55.6362 37.856C55.1418 37.856 54.741 38.2297 54.741 38.6907V51.7127H46.8857V23.029H54.741V34.7956C54.741 35.2565 55.1418 35.6302 55.6362 35.6302C56.1306 35.6302 56.5314 35.2565 56.5314 34.7956V22.1943C56.5314 21.7333 56.1306 21.3596 55.6362 21.3596H45.9905C45.4961 21.3596 45.0953 21.7333 45.0953 22.1943V51.7127H43.0274V26.6912C43.0274 26.2302 42.6266 25.8565 42.1322 25.8565H32.4861C31.9917 25.8565 31.5909 26.2302 31.5909 26.6912V51.7127H29.523V33.4364C29.523 32.9754 29.1221 32.6017 28.6277 32.6017H18.9817C18.4873 32.6017 18.0865 32.9754 18.0865 33.4364V51.7127H16.0185V38.8326C16.0185 38.3716 15.6177 37.9979 15.1233 37.9979H5.47708C4.98268 37.9979 4.58186 38.3716 4.58186 38.8326V51.7127H0.895221C0.40082 51.7127 0 52.0864 0 52.5473V56.1453C0 56.6063 0.40082 56.98 0.895221 56.98H10.5636C11.058 56.98 11.4588 56.6063 11.4588 56.1453C11.4588 55.6844 11.058 55.3106 10.5636 55.3106H1.79044V53.382H59.3233V55.3106H14.7413C14.2469 55.3106 13.8461 55.6844 13.8461 56.1453C13.8461 56.6063 14.2469 56.98 14.7413 56.98H60.2185C60.7129 56.98 61.1138 56.6063 61.1138 56.1453V52.5473C61.1138 52.0864 60.7129 51.7127 60.2185 51.7127ZM33.3814 27.5258H41.237V51.7127H33.3814V27.5258ZM19.8768 34.2711H27.7324V51.7127H19.8768V34.2711ZM6.3723 39.6673H14.2279V51.7127H6.3723V39.6673Z" fill="#ED4C5C"/>
<path d="M5.35701 30.4487H18.9811C19.7715 30.4487 20.5307 30.1375 21.0639 29.5949L32.161 18.3071H39.7204C40.4751 18.3071 41.1845 18.0333 41.7177 17.5362L50.8832 8.99061V11.6274C50.8832 12.0883 51.2841 12.4621 51.7785 12.4621H55.6363C56.1307 12.4621 56.5315 12.0883 56.5315 11.6274V2.6331C56.5315 1.18122 55.2646 0 53.7074 0H44.0616C43.5672 0 43.1664 0.373709 43.1664 0.834669V4.43265C43.1664 4.89361 43.5672 5.26732 44.0616 5.26732H46.8886L38.5511 13.0409H30.9186C30.129 13.0409 29.3702 13.3521 28.8371 13.8946L17.7387 25.1825H15.2701C14.7757 25.1825 14.3749 25.5562 14.3749 26.0172C14.3749 26.4782 14.7757 26.8519 15.2701 26.8519H18.1324C18.3833 26.8519 18.6228 26.7537 18.7923 26.5812L30.1569 15.0226C30.352 14.8242 30.6295 14.7103 30.9185 14.7103H38.9218C39.1592 14.7103 39.3869 14.6224 39.5547 14.4658L49.6827 5.02293C49.9387 4.78421 50.0154 4.42519 49.8768 4.11336C49.7382 3.80142 49.4117 3.59809 49.0497 3.59809H44.9567V1.66934H53.7072C54.2772 1.66934 54.7409 2.1017 54.7409 2.6331V10.7928H52.6736V6.97561C52.6736 6.63807 52.4555 6.33369 52.1209 6.20448C51.7866 6.0755 51.4013 6.14673 51.1454 6.38544L40.4518 16.3557C40.2567 16.5376 39.9969 16.6377 39.7204 16.6377H31.7673C31.5162 16.6377 31.2769 16.7359 31.1073 16.9084L19.7438 28.467C19.5488 28.6655 19.2708 28.7794 18.9811 28.7794H6.25224V26.8519H11.0924C11.5868 26.8519 11.9876 26.4782 11.9876 26.0172C11.9876 25.5562 11.5868 25.1825 11.0924 25.1825H5.35701C4.86261 25.1825 4.46179 25.5562 4.46179 26.0172V29.6141C4.46179 30.075 4.86261 30.4487 5.35701 30.4487Z" fill="#ED4C5C"/>
</svg>
