<svg width="47" height="57" viewBox="0 0 47 57" fill="none" xmlns="http://www.w3.org/2000/svg">
<path d="M43.7462 17.9945C43.7211 17.9918 43.6959 17.9893 43.6706 17.9872H42.2265V16.1696C42.2265 7.3733 33.8029 0.226318 23.4901 0.226318C13.1772 0.226318 4.75375 7.3733 4.75375 16.1696V17.9872H3.22547C1.24307 18.1853 -0.191796 19.8445 0.0208996 21.6928C0.022103 21.703 0.0233067 21.7131 0.02451 21.7233V36.87C0.00931749 37.4014 0.396201 37.87 0.951105 37.992L6.24593 39.1813C6.51067 41.3691 7.3049 47.1136 8.39996 49.279C9.60333 51.7025 13.2134 55.8202 23.4541 56.168H23.4902C33.7189 55.8089 37.3169 51.6801 38.5444 49.279C39.6394 47.1361 40.4216 41.4252 40.6984 39.1813L45.9932 37.992C46.5481 37.87 46.935 37.4014 46.9198 36.87V21.7233C47.1479 19.8766 45.727 18.2072 43.7462 17.9945ZM7.16049 16.1696C7.16049 8.61869 14.489 2.47027 23.4902 2.47027C32.4914 2.47027 39.8199 8.61869 39.8199 16.1696V17.9872H7.16049V16.1696ZM36.4144 48.2468C34.6936 51.6127 30.1087 53.6211 23.4902 53.8567C16.8717 53.6211 12.2868 51.6127 10.566 48.2468C9.80791 46.7546 9.10995 42.435 8.73691 39.6974L18.8332 41.9413C19.1504 42.0119 19.4848 41.9591 19.7598 41.7955L23.4902 39.5515L27.2207 41.7955C27.4144 41.9122 27.6399 41.9744 27.8705 41.975H28.1473L38.2435 39.731C37.9307 42.435 37.1725 46.7546 36.4144 48.2468ZM44.5492 36.0173L39.2905 37.1393L28.1112 39.6413L24.1641 37.2851C23.7682 37.0483 23.2604 37.0483 22.8645 37.2851L18.9174 39.6413L7.70201 37.1393L2.43125 36.0173V21.7233C2.43125 20.5341 3.08107 20.2872 3.39394 20.2311H43.5745C43.6707 20.2311 44.5612 20.3433 44.5612 21.7233L44.5492 36.0173Z" fill="#ED4C5C"/>
<path d="M28.6046 45.4867H18.3759C17.7114 45.4867 17.1725 45.9891 17.1725 46.6087C17.1725 47.2283 17.7114 47.7307 18.3759 47.7307H28.6046C29.2691 47.7307 29.8079 47.2283 29.8079 46.6087C29.8079 45.9891 29.2691 45.4867 28.6046 45.4867Z" fill="#ED4C5C"/>
<path d="M26.4504 21.5887H26.4264H19.8801C19.2155 21.5887 18.6767 22.0911 18.6767 22.7107C18.6767 23.3303 19.2155 23.8326 19.8801 23.8326H26.4504C27.115 23.8326 27.6538 23.3303 27.6538 22.7107C27.6538 22.0911 27.115 21.5887 26.4504 21.5887Z" fill="#ED4C5C"/>
<path d="M7.71403 33.6164V33.6725L5.89695 33.1227V26.6376C5.89695 26.018 5.35814 25.5156 4.69358 25.5156C4.02902 25.5156 3.49021 26.018 3.49021 26.6376V33.9305C3.46374 34.4364 3.80384 34.8961 4.32054 35.0525L6.96794 35.8603C7.09159 35.8784 7.21734 35.8784 7.34099 35.8603C8.00555 35.9564 8.62784 35.5319 8.73088 34.9123C8.83391 34.2926 8.37859 33.7124 7.71403 33.6164Z" fill="#ED4C5C"/>
</svg>
